<svg aria-hidden="true" class="t2-icon" focusable="false" height="24" viewBox="0.87 0 655.83 245.82" width="24" xmlns="http://www.w3.org/2000/svg"><path d="M530.907 118.265h-20.311V62.3174h21.003c27.446 0 38.475 9.9736 38.475 27.4458 0 17.4718-12.121 28.5018-39.203 28.5018m115.061-33.1246C645.969 28.8655 605.746 0 530.216 0H435.83v245.811h74.802v-73.383h22.787l35.964 73.383h87.287l-52.016-88.707c26.354-14.269 41.315-38.475 41.315-71.9636M326.155 0v117.209h-.728L244.946 0h-80.481v12.7401c19.037 19.4014 30.795 45.9372 30.795 75.2395 0 29.3024-11.758 55.8744-30.795 75.2394v82.592h86.888V128.602h.691l79.79 117.209h77.387V0h-83.066Z"></path><path d="M165.048 127.328c.254-.473.546-.946.8-1.456h-47.393c-11.976 0-22.8229-4.841-30.6854-12.703-7.8624 7.826-18.6733 12.703-30.6491 12.703H9.61813c.21841.474.54597.91.76437 1.42.91 1.747 1.8565 3.458 2.8757 5.132.546.947 1.092 1.893 1.7108 2.803 1.1648 1.82 2.4388 3.531 3.7492 5.242.4004.546.7644 1.128 1.2012 1.674h37.1283c11.9758 0 22.8231-4.841 30.6491-12.703 7.8625 7.862 18.7102 12.703 30.6852 12.703h37.129c.4-.509.764-1.092 1.164-1.601 1.311-1.711 2.585-3.495 3.786-5.315.619-.91 1.165-1.893 1.711-2.839.764-1.274 1.565-2.548 2.257-3.895.218-.4.364-.801.582-1.201M57.0482 60.7886c11.9757 0 22.8229-4.8413 30.649-12.7037 7.8625 7.8624 18.7098 12.7037 30.6858 12.7037h51.761c-.291-.91-.692-1.7472-1.019-2.6208-.619-1.638-1.201-3.2761-1.893-4.8777-.51-1.1648-1.092-2.3296-1.675-3.458-.4-.8008-.728-1.6016-1.164-2.4024-.328-.6188-.692-1.2376-1.02-1.8564-.182-.3276-.327-.6917-.546-1.0557h-44.481c-11.975 0-22.8227-4.8412-30.6852-12.7037-7.8625 7.8625-18.6733 12.7037-30.649 12.7037H12.567c-.2184.364-.364.7281-.546 1.0921-.7645 1.3832-1.4561 2.7664-2.14766 4.186-.58241 1.1648-1.16481 2.2932-1.67442 3.4944-.6916 1.5652-1.27401 3.2033-1.89282 4.8413-.3276.91-.728 1.7472-1.0192 2.6572h51.7613Z"></path><path d="M87.7336 75.203c7.8625 7.8625 18.7094 12.7037 30.6854 12.7037h56.129c0-2.8756-.145-5.7148-.436-8.4812-.11-1.0557-.292-2.0749-.437-3.0941-.219-1.5652-.364-3.1304-.655-4.6592h-54.565c-11.975 0-22.8225-4.8413-30.685-12.7037-7.8625 7.826-18.7098 12.7037-30.6855 12.7037H2.44763c-.2912 1.5652-.4732 3.1668-.69161 4.732-.1456.9828-.3276 1.9656-.4368 2.9848-.2912 2.8029-.436804 5.6421-.436804 8.5177H57.0481c11.9757 0 22.823-4.8412 30.6855-12.7037Z"></path><path d="M87.7333 102.358c7.8625 7.826 18.7097 12.703 30.6857 12.703h51.797c.073-.182.11-.4.146-.582.4-1.274.728-2.585 1.092-3.895.364-1.42.801-2.839 1.092-4.259.291-1.31.473-2.657.692-3.967.182-1.165.473-2.33.618-3.5313h-55.437c-11.976 0-22.8232-4.8412-30.6857-12.7037-7.8625 7.8261-18.7097 12.7037-30.6855 12.7037H1.57376c.1456 1.2013.4004 2.3293.61881 3.4943.2184 1.347.4004 2.694.6916 4.004.32761 1.456.72801 2.912 1.12841 4.332.36401 1.274.65521 2.584 1.05561 3.822.0728.182.1092.4.1456.582H57.0478c11.9758 0 22.823-4.841 30.6855-12.703ZM118.419 153.027c-11.975 0-22.8226-4.841-30.6851-12.704-7.8625 7.863-18.7097 12.704-30.6855 12.704H30.2578c.364.327.7644.619 1.1284.91.9464.801 1.9292 1.601 2.912 2.366 1.1285.873 2.2569 1.747 3.4217 2.584 1.0192.728 2.0384 1.42 3.094 2.075 1.2376.801 2.4752 1.529 3.7128 2.257 1.0556.619 2.1477 1.201 3.2397 1.784 1.3104.691 2.6572 1.31 4.004 1.929 1.092.509 2.2204 1.019 3.3488 1.456 1.4196.582 2.8757 1.092 4.3681 1.601 1.1284.401 2.2204.801 3.3488 1.129 1.5652.473 3.1668.837 4.7684 1.237 1.092.255 2.1477.546 3.2397.765 1.82.364 3.64.582 5.4964.837.9464.109 1.8564.291 2.8028.4 2.8029.292 5.6421.437 8.5177.437 2.8756 0 5.7149-.145 8.5541-.437.9464-.072 1.8564-.254 2.7664-.4 1.8564-.255 3.7124-.473 5.5324-.837 1.092-.219 2.148-.51 3.24-.765 1.602-.364 3.24-.764 4.805-1.237 1.128-.328 2.22-.728 3.349-1.129 1.456-.509 2.948-1.019 4.368-1.601 1.128-.437 2.22-.947 3.312-1.456 1.347-.619 2.694-1.274 4.041-1.929 1.092-.583 2.147-1.165 3.203-1.784 1.274-.728 2.512-1.492 3.749-2.293 1.056-.656 2.075-1.347 3.058-2.075 1.165-.837 2.329-1.711 3.458-2.585.983-.764 1.965-1.528 2.875-2.329.364-.328.801-.619 1.165-.947h-26.754l.036.037ZM87.7335 20.9665c7.8625 7.8625 18.7095 12.7038 30.6855 12.7038h36.946s-.145-.2184-.254-.3276c-3.786-4.6957-8.081-8.9545-12.741-12.7402-.728-.5824-1.492-1.1284-2.256-1.6744-1.638-1.2376-3.276-2.4752-5.024-3.6036-.946-.6188-1.965-1.2012-2.948-1.7836-1.602-.9464-3.24-1.8928-4.878-2.73-1.092-.546-2.184-1.09205-3.312-1.60166-1.675-.7644-3.349-1.49241-5.06-2.14762-1.165-.4368-2.293-.8736-3.494-1.27401-1.784-.6188-3.604-1.12841-5.46-1.60161-1.165-.2912-2.294-.61881-3.458-.87361-2.039-.4368-4.114-.76441-6.188-1.09201-1.0196-.1456-2.0388-.364-3.058-.4732-3.1304-.32761-6.2972-.54601-9.5369-.54601-3.2396 0-6.4064.2184-9.5369.54601-1.0192.1092-2.002.3276-3.0212.4732-2.1112.2912-4.186.61881-6.2244 1.09201-1.1649.2548-2.2933.58241-3.4217.87361-1.8564.5096-3.7128 1.01921-5.5328 1.63801-1.1648.40041-2.2932.80081-3.3853 1.23761-1.7472.65521-3.4944 1.41962-5.1688 2.18402-1.0556.50961-2.1476.98286-3.2032 1.52886-1.7108.8736-3.3853 1.82-5.0597 2.8392-.9464.546-1.8928 1.092-2.8028 1.7108-1.7836 1.1648-3.4944 2.4388-5.2052 3.7128-.6916.5096-1.3832 1.0192-2.0749 1.5652-4.6956 3.7857-8.9544 8.0809-12.7765 12.7766-.0728.1092-.182.2184-.2548.3276h37.0192c11.9757 0 22.823-4.8413 30.6854-12.7038"></path></svg>