<?xml version="1.0" encoding="UTF-8"?>
<svg id="Layer_2" data-name="Layer 2" xmlns="http://www.w3.org/2000/svg" viewBox="0 0 841.76 844.89">
  <g id="Layer_7" data-name="Layer 7">
    <g>
      <path d="M571.05,0c1.3,16.61,4.94,32.88,9.06,49.37,4.78,19.14,8.07,37.16,3.26,56.43-7.4,29.64-38.59,29.89-61.86,47.12-6.43,4.76-7.63,12.1-3.84,18.77,3.02,5.32,7.88,8.42,14.26,7.27,11.96-2.15,30.46-16.48,40.33-24.22,9.33-7.31,17.82-14.74,25.18-24.03,12.1-15.26,17.46-33.9,14.66-53.27-3.98-27.63-16.42-50.62-17.48-77.44h53.2c1.21,2.47-9.45.14-15.71,5.97-5.03,4.68-5.27,13.88-.55,18.87,5.45,5.76,18.54,2.4,25.3,1.06,16.76-3.32,33.52-1.21,48.8,6.31,8.13,4,14.99,8.9,21.99,14.65,10.08,8.28,19.87,16.24,30.6,23.66,22.01,15.21,48.68,23.76,74.65,13.57l8.86-3.48v24.43c-31.54,11.22-55.68-.97-81.87-18.41l-24.29-16.18c-15.26-10.16-35.4-19.41-54.05-17.07-21.01,2.63-33.51,18.16-37.42,37.93-1.73,8.79-3.74,16.9-6.95,25.25-6.98,18.17-19.73,32.5-36.64,42.09-5.5,3.12-10.75,6.03-15.12,10.47-5.91,6-6.59,14.11-1.92,21.08,11.71,17.48,35.34,20.44,43.86,48.4,10.87,35.69,2.01,68-11.96,101.26-4.45,10.59-8.67,20.63-11.16,31.9-5.9,26.67-.81,49.82,18.28,69.59,8.51,8.82,16.08,17.51,22.06,28.31,13.19,23.79,16.35,51.63,7.7,77.57-9.46,28.38-30.89,47.05-53.39,65.01l-34.04,27.17c-11.28,9.01-20.57,19.23-29.23,30.88-14.88,20.01-23.68,43.73-24.24,68.81-.7,31.13,14.9,60.09,46.89,66.79l32.87,6.89c26.94,5.65,45.68,16.82,69.37,30.02,1.16.65,2.21,1,2.56,2.09h-43.8c-5.16-5.9-19.29-11.26-27.42-13.46-23.81-6.45-44.1-7.16-68.45-15.62-10.26-3.57-18.43-9.61-24.14-19.01-13.31-21.9-13.73-50.21-7.95-74.7,3.82-16.19,4.36-32.56-13.41-39.89-16.86-6.95-28.64,4.23-37.23,17.7-21.2,33.24-43.99,64.67-81.22,80.66-5.78,2.48-10.94,5.36-15.16,9.98-14.34,15.7-6.83,38.1,9.15,49.31,1.2-6.3,1.47-11.61,3.59-17.14,3.19-8.3,11.57-14.02,20.5-11.76,10.88,2.75,6.6,28.42,27.2,26.06l37.7-4.31c15.77-1.8,30.81-2.46,46.51.02l41.74,6.61,28.47,3.85c1.18.16,2.57.57,2.44,1.69h-234.01c-1.46-2.48-3.24-4.74-4.95-7.31-12.96-19.5-11.47-43.84,3.61-61.83,8.26-9.86,18.96-17.03,31.07-21.84,5.15-2.04,9.91-3.76,14.96-6.1,37.66-17.4,60.1-45.42,76.93-82.71,3.78-8.37,8.52-15.62,14.3-22.68l16.98-20.75c6.49-7.94,12.03-16.28,15.92-25.71,4.45-10.77,3.27-21.82-3.62-31.19-13.24-18.02-31.23-23.11-47.22-42.77-8.18-10.06-16.72-23.85-5.26-35.39,3.93-3.95,8.64-6.6,13.71-9.05,25.77-12.41,44.51-33.81,71.99-39.04,15.63-2.97,28.49,4.04,41.18,12.35,6.85,4.48,13.62,8.37,20.78,12.22,20.83,11.17,36.8,27.02,34.36,52.65-.92,9.71-3.21,18.88-9.26,26.57-2.16,2.74-5.18,5.51-9.01,5.05-4.45-.53-6.45-5.17-6.36-9.47.33-15.05-1.56-29.56-7.43-43.2-8.14-18.9-23.51-31.96-43.24-37.22-12.52-3.34-24.79-2.73-36.78,2.87-8.88,4.15-16.88,9.55-24.34,15.97-8.8,7.57-18.01,14.57-23.45,24.93-8.39,15.99,6.05,28.77,18.24,36.79,6.42,4.22,12.52,8.17,18.04,13.5,8.9,8.59,14.03,19.64,13.94,32.14-.1,13.56-4.58,20.2-3.45,32.92.57,6.49,3.72,12.08,9.14,15.62,12.5,8.17,26.63,4.73,38.72-2.66,19.43-11.88,37.19-25.96,52.25-43.17,18.69-21.36,30.75-47.25,34.29-75.38,2.08-16.54-3.26-32.07-14.24-44.22-6-6.63-13.08-11.08-20.53-15.94l-26.52-17.28c-18.73-12.2-38.1-20.7-61.01-17.32-24.91,3.68-42.07,16.02-62.5,29.04l-26.76,17.05c-10.57,6.73-32.46,15.3-42.4,3.07-11.53-14.19-3.46-32.71,4.09-46.96,22.54-42.52,58.85-66.85,100.27-88.95,16.88-9.01,32.69-18.64,48.26-29.61,5.48-3.86,9.72-9.97,10.22-16.59.75-10.07-5.92-18.49-14.75-22.62-6.19-2.89-12.57-4.14-19.33-5.47-21.43-4.2-43.64-1.55-65.32-10.18-6.91-2.75-13.28-6.09-19.33-10.22-5.14-3.51-8.46-9.59-6.36-15.61,1.21-3.48,4.87-6.25,8.49-7.56,15.56-5.62,29.24-13.97,41.16-25.58,10.09-9.83,18.55-20.45,26.52-32.05,4.72-6.86,9.52-13.02,15.84-18.48,13.41-11.58,24.79-17.86,36.58-31.44,16.01-18.44,12.29-40.27,5.54-61.65l-13.4-42.46h22.9ZM511.71,385.68c-7.39,6.29-14.02,12.79-19.29,20.91-.66,1.01-1.46,2.97-.26,3.94,30.74-9.11,60.35-22.42,83.69-44.25,15.39-14.4,27.9-31.48,36.81-50.53,9.22-19.73,10.61-41.21,3.94-61.68-12.01-36.87-48.75-51.44-85.03-47.7-17.85,1.84-35.15,7.26-49.87,17.07-4,2.66-5.08,7.06-3.5,10.47,1.79,3.85,5.78,5.72,10.16,4.47l29.75-8.52c15.74-4.51,31.74-5.04,47.45-.19,21.04,6.5,35.11,26.85,34.06,49.09-1.3,27.41-18.06,55.18-38.64,72.52-13.93,11.74-34.79,22.08-49.26,34.4ZM408.76,452.53c6.65,3.88,16.89-5.88,21.1-10.1,20.05-20.09,40.78-38.78,62.69-56.95,14.92-12.37,29.98-23.42,45.87-34.41,10.9-7.54,20.52-15.95,29.2-25.88,15.48-17.72,23.87-40.57,14.23-63.23-5.3-12.45-16.79-19.84-30.35-20.31-5.58-.19-11.91-.34-16.39,3.1-1.86,1.43.87,4.79,2.5,5.5,7.87,3.43,15.32,7.01,22.1,12.14,6.04,4.57,9.08,11.42,7.75,18.93-1.93,10.85-7.03,20.43-14.31,28.69-5.26,5.97-10.77,11.06-17.36,15.65l-47.29,32.87c-12.59,8.75-24.65,17.01-36.59,26.63-16.93,13.65-32.85,28.02-46.48,44.71-6.05,7.41-4.72,17.96,3.34,22.66Z"/>
      <path d="M259.93,0c.06,1.24-.59,2.29-1.28,3.53-7.18,12.91-12.56,26.2-16.63,40.52-6.79,23.91-7.39,48.14-3.29,72.56,1.8,10.71,1.95,21.09.46,31.66-2.09,14.85-9.44,27.57-21.13,36.76-14.42,11.33-36.09,18.98-53.66,24.42-9.83,3.05-19.29,5.79-28.76,9.48-2.65,1.04-4.49,3.13-4.53,5.6s1.37,4.93,4.02,6.01c3.1,1.27,6.23.91,9.76.54,48.37-5.13,86.09-28.18,123.46-57.58,18.33-14.42,37.9-27.38,62.29-25.94,25.17,1.48,36.3,15.39,56.98,22.94,20,7.31,37.28-1.68,51.11-16.08,17.61-18.34,27.62-42.58,28.34-68.17.2-6.93-1.08-13.34-4.18-19.27-7.16-13.71-25.49-15.56-39.34-13.82-15.13,1.9-29.63-1.56-41.64-10.93-16.27-12.71-34.79-19.2-54.16-8.73-10.28,5.56-17.44,14.37-20.8,25.69-2.23,7.52-2.96,15.05-3.84,22.98l-3.9,35.25c-.55,4.98-2.82,10.23-6.94,13.18-6.89,4.93-16.81,5.73-24.22,1.35-6.34-3.75-10.48-10.65-11.68-18.08-6.38-39.49,4.36-79.36,28.62-111.01.83-1.08,1.33-1.77,1.18-2.84h33.67c.09.57-.36,1.2-1.19,1.43-28.88,8.23-43.79,33.1-49.25,61.26-2.72,14-4.36,27.99-3.89,42.17.2,6.05,4.5,11.44,9.68,12.89,3.2.89,5.8.87,8.46-.64,2.04-1.16,3.85-3.98,4.34-7.06,1.97-12.3,2.29-24.55,2.54-37.06.17-8.77,1.71-16.95,5.41-24.95,9.16-19.82,29-31.87,50.83-31.09,19.93.71,30.67,10.12,49.68,16.71,23.06,7.99,31.94-2.47,53.31-2.64,21.28-.17,25.93,22.64,30.29,39.03.98,3.68,3.68,6.64,6.47,7.65,3.95,1.43,8.18.61,10.99-2.46,7.46-8.12,10.54-19.85,6.32-30.31-9.49-23.53-33-38.49-58.07-35.57l-23.59,2.74c-24.52,2.85-33.27-3.33-56.12-10.51-1.03-.32-2.08-.57-1.79-1.61h113.13c.02.61.35,1.23,1.04,1.65,5.8,3.51,10.78,7.23,15.74,11.93,15.47,14.68,22.51,36.45,17.08,57.31-2.15,8.25-6.84,15.09-12.21,21.42l-14.58,17.19c-6.93,8.17-12.24,17.08-18.34,25.95-10.23,14.87-21.72,30.73-36.83,40.7-25.77,17-52.29,4.37-77.43-6.91-17.79-7.98-37.85-9.1-56.03-2.06-9.74,3.77-21.22,12.24-22.2,23.28,1.66.27,3.29-.16,4.83-.87,27.32-12.48,54.08-15.05,81.9-2.07,25.25,11.78,50.82,15.36,74.17-2.78,10.59-8.23,19.79-17.22,28.15-27.73l23.59-29.66c6.94-8.73,13.68-16.98,21.84-24.56,8.96-8.32,15.46-18.22,18.08-30.38,2.87-13.31,2.36-26.97-1.64-40.02-3.36-10.95-9.12-20.27-16.07-29.16-.84-1.08-1.67-1.96-1.47-3.21h16.84c-.05.7-.15,1.52.22,2.43,7.22,17.63,15.47,37,17.17,56.14,1.63,18.35-5.58,35.61-20.12,47.23-11.68,9.33-22.44,18.78-31.88,30.61l-20.01,25.05c-6.29,7.88-12.81,14.9-20.54,21.32-32.49,26.98-71.83,25.16-109.93,12.31-8.04-2.71-16.11-4.29-24.46-2.69-17.3,3.32-22.39,20.87-21.87,36.57,1.62,48.68-5.58,93.19-33.06,134.06-6.75,10.03-14.92,17.37-26.06,22.45-14.02,6.39-29.21,8.39-44.89,7.56-16.34-.87-31.53-5.11-46.69-10.97-13.62-5.26-26.28-11.18-38.84-18.64l-36.68-21.75c-4.26-2.53-8.48-4.59-13.25-5.52-7.38-1.43-13.53,1.86-17.06,8.2-3.12,5.59-2.91,11.77,1.78,16.5,3.17,3.19,6.81,5.76,10.88,7.97l36.28,19.64c17.19,9.31,34.59,16.79,53.28,22.71,23.51,7.45,47.4,9.38,71.93,7.8l29.23-1.88c38.3-2.47,56.21-19.4,69.49-53.87,8.08-20.96,20.02-31.3,38.05-43.93,24.31-17.04,24.69-42.98,18.03-69.45-1.72-6.84-3.34-16.33,4.94-19.43,13.6-5.09,29.96-.79,35.37,13.63,7.22,19.24,4.23,40.9-8.05,57.44-7.73,10.41-18.13,17.59-30.11,22.28-26.27,10.27-45.87,27.87-52.5,56.11-4.58,19.53-.6,31.3-6.2,45.61-6.14,15.69-24.87,12.28-37.11,7.35-19.84-8-41.12-7.95-60.87.24-23.38,9.7-32.61,21.39-49.78,28.21-7.98,3.17-16,1.95-22.55-3.63-5.43-4.63-10.1-9.82-14.36-15.75-21.59-30.04-50.39-43.3-85.39-52.67-8.99-2.41-17.21-6.07-24.09-12.22-8.58-7.67-11.96-18.95-8.28-29.87,1.36-4.05,2.93-7.78,5.64-11.3,9.85-12.81,25.78-20.82,42.21-19.21,16.92,1.66,48.76,14.14,65.49,20.66,15.31,5.96,30.02,11.26,46.07,15.07,26.07,6.19,53.39,2.4,75.9-12.16,11.25-7.27,20.59-16.35,27.53-27.81,10.44-17.24,13.87-37.88,8.83-57.21-6.47-24.81-29.1-40.69-54.48-38.11-26.9,2.73-43.06,23.1-70.44,28.97-16.74,3.59-33.01,0-46.7-10.07-8.35-6.14-15.09-13.28-22.14-20.95-9.73-10.59-18.85-21.24-26.42-33.45-2.02-3.25-2.18-7.29-.1-10.11,1.85-2.52,4.95-4.56,8.54-3.7,3.12.74,5.62,2.72,7.8,5.07,34.23,36.67,85.67,47.39,125.29,12.73,10.8-9.45,18.42-21.04,22.64-34.82,2.92-9.55,4.71-19.01,5.06-29.04l1.28-36.72c.97-27.77,2.6-54.91,12.35-81.13.52-1.41,1.06-2.58.81-3.84h18.86Z"/>
      <path d="M299.1,844.89h-26.37c-12.95-32.45-.58-66.87,21.27-92.59,8.44-9.94,18.03-17.46,29.49-23.58,26.37-14.11,52.25-28.7,75.39-47.94s39.91-41.74,50.97-68.65c8.97-21.82,9.45-43.35-8.32-60.57-5.12-4.97-10.49-9.01-16.19-13.45-17.36-13.53-38.56-30.49-50.95-48.57-1.77-2.58-3.95-4.6-7.26-4.83-7.53,17.79,8.36,33.08,21.85,41.97,10.3,6.79,19.98,13.78,29.42,21.7,14.41,12.09,23.41,26.61,20.14,46.16-8.81,52.64-53.39,78.72-98.41,98.07-10.13,4.35-19.47,8.85-29,14.28-10.99,6.26-20.08,14.01-28.67,23.24-31.05,33.32-47.91,68.62-37.67,114.75h-80.1c-19.49-17.48-37.43-36.14-53.23-57.44-15.66-21.12-37.6-37.05-64.95-27.35-9.74,3.45-18.74,8.34-26.47,15.26-7.08,6.34-12.07,14.02-17.25,21.89-.8,1.21-1.43,2.53-2.78,2.54v-30.3c1.32.04,2.29-.95,3.44-1.91,9.57-8.04,19.28-15.22,30.5-20.78,29.04-14.39,59.34-4.94,80.92,17.65l24.31,25.45c15.91,16.65,33.13,28.65,57.25,23.1,27.05-6.22,38.99-28.41,44.77-53.63,9.57-41.78,42.47-65.13,81.11-78.35l31.03-10.61c29.96-10.25,56.32-26.97,67.25-58.07,5.94-16.9,3.82-34.43-6.1-49.32-11.55-17.33-29.45-27.88-47.74-37.14-19.77-10.01-40.25-17.19-62.4-20.3-30.22-4.24-60.84-.07-88.27,13.2-12.54,6.07-31.09,33.68-47.89,23.45-13.13-8-19.64-24.74-10.23-37.87,8.07-11.27,17.18-21.43,27.19-31.1,7.26-7.02,15.18-12.52,24.24-16.89,20.5-9.88,39.83-7.57,60.98-2.15l26.21,6.71c12.62,3.23,26.68,1.51,31.98-11.97,1.59-4.05,2.61-8.27,2.63-12.72l.06-23.54c.02-8.85.5-17.23,1.8-25.92,1.77-11.87,7.63-21.96,17.26-29.19,17.94-13.46,30.91-11.77,49.33-24.7,21.17-14.86,28.71-36.31,31.11-61.21.3-3.15,1.64-6.55,4.22-8.3,2.83-1.92,6.2-1.04,9.13.18,21.5,8.95,44.48,8.32,67.02,12.6,3.11.59,6.89,1.91,8.12,5.02,1.49,3.78-1.24,7.72-4.43,9.88-8.71,5.89-17.62,10.46-27,15.31-33.23,17.18-55.47,27.57-80.23,56.63-10.23,12-19.19,24.19-26.3,38.09-17.21,33.62-11.39,73.29,14.78,100.5,6.85,7.12,13.91,13.58,21.71,19.99l27.71,22.76,13.63,10.6c15.35,11.94,23.08,30.86,12.29,48.31-3.42,5.53-7.32,10.36-11.86,15.02-21.07,21.66-29.62,47.6-46.46,73.26-6.76,10.31-15.59,17.93-26.97,22.88-9.21,4.01-18.4,6.88-28.13,9.66-16.35,4.67-30.96,12.41-42.83,24.42-20.56,20.8-29.19,49.75-22.23,78.24,1.58,6.48,3.87,12.27,6.23,18.17ZM188.33,515.45c31.63-32.76,67.26-37.01,108.85-20.08,6.51,2.65,12.92,4.54,19.96,5.03,24.61,1.73,38.98-16.33,42.51-39.17,5.12-33.12,9.25-56.87,25.87-86.44,1.66-2.96,2.68-7.13,1.24-10.1-2.81-5.83-10.07-7.32-15.7-4.53-12.1,5.99-19.59,17.36-22.05,30.57-1.42,7.62-1.17,14.88-1.87,22.6l-2.91,32.41c-.78,8.7-3.03,16.97-7.35,24.24-9.93,16.73-28.63,10.68-42.87,4.33-31.74-14.15-65.39-17.79-94.33,4.77-10,7.79-18.74,16.76-25.98,27.07-3.51,4.99-3.47,11.61.36,15.96,3.51,3.99,11.85-4.16,14.27-6.67Z"/>
      <path d="M841.76,355.46v52.51c-1.07.17-1.75-.64-2.42-1.54-5.53-7.4-8.09-15.77-10.32-24.7-8.53-34.22-5.8-46.15-8.48-79.04-1.59-19.44-6.06-39.14-19.86-53.7-17.11-18.06-42.93-25.55-67.24-20.05-8.41,1.9-16.31-.04-22.9-5.65-15.36-13.08-17.9-37.34-15.71-56.3l3.65-31.61c1.08-9.38,2.09-18.46,1.48-27.79-.26-3.98-2.33-7.47-5.17-8.86-7.31-3.59-13.15.83-16.56,7.96-14.86,31.06-16.48,64.56-8.82,98,15.79,68.9-21.61,119.38-15.14,167.9,1.89,14.19,7.21,27.67,17.01,38.13,11.81,12.58,31.66,18.23,34.7,42.75,2.39,19.25-.99,28.08,3.3,47.79,4.37,20.09,8.74,36.49-2.45,55.27-8.72,14.63-20.25,23.39-34.01,33.32-24.32,17.56-52.67,42.46-68.62,68.1-9.38,15.09-16.21,31.25-18.95,48.83-.65,4.21-.37,8.69,1.94,12.21,3.5,5.34,11.66,7.21,17.06,3.67,3.89-2.55,6.18-7.25,7.03-11.88,6.08-33.15,21.24-59.23,45.42-82.57,12.28-11.85,25.13-22.32,39.12-32.1,8.07-5.65,15.25-11.36,21.87-18.67l14.4-15.91,5.88-8.26c2.3-3.22,6.26-3.48,9.38-1.05,3.64,2.84,5.33,7.12,4.03,11.83s-3.95,9.02-7.98,12.15l-46.25,35.89-30.05,21.79c-10.87,7.88-18.81,18.35-24.85,30.55-14.49,29.29-17.35,63.71-8.12,95.07,4.25,14.47,11.75,26.64,22.2,37.12,23.07,23.14,48.49,40.18,80.67,47.25.45.1.36,1,.37,1.01h-25.59c-.07-.25-.03-1.21-.7-1.49-18.12-7.62-35.05-16.56-52.09-26.45l-41.36-24.01c-13.19-7.66-26.93-12.9-41.27-18.02-19.99-7.13-38.66-20.08-37.35-43.88.96-17.37,7.29-33.48,17.02-47.82,6.49-9.57,13.51-17.97,21.74-26.13l31.45-31.17c15.9-15.76,39.71-29.4,58.62-49.11,13.2-13.75,21.65-30.23,24.09-49.35,3.87-30.25-5.24-61.25-25.7-83.98-8.72-9.69-16.62-19.04-23.01-30.37-10.28-18.24-13.49-38.59-8.94-59.07,2.42-10.88,6.29-20.54,10.9-30.67,18.35-40.36,18.85-83.35-8.31-119.94-3.81-5.14-7.93-9.42-11.24-14.88-4.11-6.79-4.03-14.87,1.33-21.05,17.86-20.6,30.68-35.06,40.58-61.58,3.42-9.17,9.1-21.54,19.59-23.51,6.94-1.3,14.3.3,19.98,4.45,8.42,6.15,6.87,19.44,6.18,28.26-1.74,22.17-1.83,50.88,13.23,68.7,6.68,7.9,15.42,13.27,25.26,16.59,11.71,3.96,22.71,8.15,33.38,14.34,21.13,12.26,36.16,30.96,43.4,54.31,10.02,32.29,2.36,51.39,11.74,85,.26.95.77,1.48,1.45,1.39Z"/>
      <path d="M0,739.2v-17.5c13.25-3.45,26.11-9.96,36.94-18.77,11.2-9.12,18.62-20.56,22.57-34.3,7.27-25.25,8.97-51.97,5.83-78.25-2.64-22.12-6.86-43.48-13.27-64.77-8.17-27.12-23.67-51.31-49.31-64.43-1.03-.53-1.89-.76-2.76-.69v-20.2c22.44,8.34,41.02,25.32,53.56,46,8.17,13.46,13.69,27.51,18.01,42.59,2.84,9.93,5.06,19.51,5.29,29.92l.56,24.9c.57,25.26,3.24,46.58,23.39,64.2,17.81,15.58,41.47,22.89,65.08,19.56,26.12-3.69,51.4-17.44,74.49-29.78,11.76-6.29,23.13-12.09,35.4-17.23,20.45-8.57,36.67-4.35,56.15,3.57,20.26,8.24,37.99-4.83,49.39-20.7,2.34-3.26,4.7-6.42,7.7-8.95,2.53-2.13,5.49-1.62,7.44.96,2.87,3.81,3.27,8.92,1.1,13.56-7.39,15.78-20.97,27.36-37.41,33.19-19.82,7.03-34.78,7.26-56.24,15.15-27.85,10.24-51.16,28.2-68.01,52.65-9.74,14.12-17.39,28.94-23.56,44.95-2.49,6.47-5.86,12.15-10.48,17.14-7.57,8.17-18.5,10.09-28.66,5.44-15.76-7.2-24-21.31-37.48-33.88-42.5-39.64-85.19-40.35-131.86-6.61-1.33.96-2.45,1.97-3.86,2.28ZM96.93,695.33c16.37,12.62,35.01,21.28,55.24,24.91,20.8,3.73,41.08-.68,58.52-12.19,25.17-16.59,44.17-34,68.52-51.17,6.52-4.6,12.93-8.55,20-12.32,3.5-1.87,6.74-5.32,6.35-9.64-.25-2.8-3.58-4.22-6.23-4.54-20.43-2.47-37.19,10.26-53.02,21.19-40.56,28.01-79.27,48.59-129.21,29.78-7.18-2.7-16.57-6.28-22.09,2.86-2.09,3.46-2.02,8.08,1.92,11.11Z"/>
      <path d="M0,415.38v-11.44c50.24,8.75,92.71,33.68,116.01,80.75,7.21,14.57,12.1,29.37,15.88,45.22,2.94,12.35,7.44,23.65,13.99,34.32,10.64,17.34,28.22,27.22,48.73,27.19,38.34-.06,47.95-16.6,92.29-15.25,12.06.37,23.63,1.1,35.65,2.33,5.35.55,10.58,1.01,15.7.18,6.3-1.03,9.71-5.75,9.69-11.81-.03-12.28-11.89-11.86-18.63-12.99-35.22-5.9-64.2-1.37-98.44,6.73-2.9.69-5.85.77-8.62.26-3.87-.71-5.71-3.5-5.58-7.67.22-7.57,6.24-14.86,14.45-15.84,14.41-1.73,28.41-2.64,42.99-3.58,28.54-1.84,56.45-.25,82.86,10.74,13.72,5.71,19.08,20.54,12.16,33.92-6.42,12.41-21.67,21.28-35.61,15.77-23.33-9.23-47.64-10.97-71.58-2.41-12.59,4.5-24.4,10.1-35.87,17.25l-26.52,16.55c-7.86,4.9-15.74,8.51-24.72,10.95-21.98,5.98-45.79-3.24-56.56-23.6-5.22-9.86-7.8-20.85-8.14-32.18-1.09-36.32-11.31-71.14-31.08-101.78-11.33-17.56-25.16-32.99-42.12-45.3-11.4-8.28-23.59-15.2-36.93-18.31Z"/>
      <path d="M0,303.62v-26.26c4.04-1.08,7.77-3.33,11.88-4.94,10.07-3.96,20.17-4.27,30.49-1.01,21.7,6.85,41.85,20.54,59.2,25.8,19.48,5.91,39.84,7.96,60.1,6.69,21.83-1.38,41.37-9.88,57.51-24.2,4.63-4.11,8.59-8.12,11.48-13.56,3.77-7.07,1.7-16.33-6.05-19.47-3.23-1.31-7.36.35-9.99,2.28l-15.57,11.41c-8.99,6.59-18.2,12.01-28.4,16.48-31.47,13.77-59.71,4.32-87.58-12.52l-24.34-14.7c-6.74-4.07-13.74-6.92-21.42-8.86-11.41-2.88-23.03-1.78-33.69,3.12-1.3.6-2.43,1.13-3.61,1.17v-28.28c1.55-.02,2.95-.89,4.52-1.68,15.44-7.73,30.56-14.63,46.17-4.48,20.49,13.32,37.66,40.87,64.66,52.99,21.42,9.62,43.97,8.72,62.82-6.15l19.1-15.07c8.15-6.44,17.82-10.17,28.24-10.2,13.28-.04,24.19,7.44,28.97,19.68,3.95,10.11,4.3,20.84,1.27,31.42-2.86,10-7.79,19.17-15.99,25.78-15.38,12.39-34.2,18.57-53.94,19.18-29.89.93-67.25-11.05-95.15-21.65l-42.03-15.97c-17.99-6.84-32.23.44-46.02,11.54-.9.72-1.75,1.2-2.63,1.44Z"/>
      <path d="M841.76,440.96v74.99c-10.97,8.03-17.79,14.01-30.82,19.97-20.64,9.43-36.76,4.35-54.71-6.72-13.53-8.34-23.17-20.82-27.76-36.2-10.5-35.21,2.03-55.52-7.66-77.81-2-4.59-4.88-8.36-9.11-11.11-11.97-7.77-19.37-7.3-26.33-20.79-4.66-9.04-7.11-18.87-6.65-29.19l1.23-27.58c.69-15.48,3.83-30.33,12.03-43.5,6.81-10.94,16.11-19.95,28.08-24.8,27.84-11.27,58.91.77,72.93,27.01,5.09,9.53,7.12,19.48,8.04,30.39,3.5,41.88,6.55,92.34,38.21,123.79.83.82,1.43,1.67,2.51,1.55ZM807.49,528.26c12.55-3.59,22.53-11.95,26.4-24.49,4.1-13.28,3.85-27.66-1.61-40.47-3.46-8.13-7.81-15.1-12.65-22.4-26.21-39.48-20.33-73.05-29.17-116.24-3.68-17.96-11.83-36.78-27.48-47.24-19.71-13.17-43.05-3.57-56.48,13.52-15.12,19.24-20.48,44.28-15.26,68.09,1.94,8.84,6.5,15.82,14.27,20.31l15.27,8.84c18.89,10.94,20.27,30.73,18.91,50.13-.85,12.12-.66,23.79.81,35.76,2.2,17.93,10.64,33.06,24.17,44.73,11.98,10.33,27.04,13.97,42.84,9.45Z"/>
      <path d="M841.76,611.23v44.53c-6.6-1.21-12.76-3.61-19.55-5.49-16.95-4.71-34.25-5.97-51.43-2.16-14.52,3.22-27.69,9.87-37.41,21.18-8.21,9.55-13.95,20.65-17.76,32.59-5.03,15.75-3.77,31.77,2.8,46.83,9.18,21.07,27.79,38.55,44.61,53.69,12.96,11.66,22.34,24.6,18.66,42.5h-24.76c-.26-1.41,1.23-1.68,2.17-2.71,3.84-4.21,5.53-10.75,3.27-16.24-1.73-4.22-5.23-7.35-9.04-9.8-10.94-7.03-21.58-13.8-31.31-22.49-19.16-17.12-33.34-36.93-33.58-63.89-.24-27.58,10.84-53.15,30.08-72.82,16.48-16.84,37.29-29.12,60.56-33.64l56.98-11.06c2.11-.41,3.87-.99,5.71-1.02Z"/>
      <path d="M102.36,0c0,1.06-.44,2.02-1.06,3.13-15.02,27.28-17.89,58.35-1.91,86.01,6.46,11.17,14.62,21.07,24.76,28.94,6.57,5.1,15.26,7.39,23,4.61,5.8-2.09,6.9-8.93,4.75-14.1-4.33-10.45-16.13-12.55-26.9-23.5-13.49-13.73-14.57-30.19-7.13-47.44,4.93-11.44,10.81-22.01,16.83-32.93.91-1.66,1.93-3.09,1.99-4.71h35.69c-6.99,33.04-5.11,63.67-3.45,97.58.78,15.97-1.99,31.35-18.35,37.57-10.01,3.8-20.58,3-29.9-2.83-14.12-8.84-24.53-21.87-31.36-37.22-12.27-27.53-15.25-64-3.7-92.31.42-1.03.74-1.91.56-2.78h16.16Z"/>
      <path d="M59.93,0c.27,1.25.03,2.41-.17,4.1-3.5,29.27-.93,58.52,8.41,86.62,7.37,22.18,17.5,42.92,31.17,61.67,14.76,20.24,42.71,24.79,63.25,10.65,17.01-11.72,26.83-30.7,28.9-51.15,2.71-26.89.73-48.21,2.19-74.9.71-12.89,3.17-24.91,6.32-36.98h16.84c-2.91,10.46-5.12,21.05-5.02,32.26l.28,31.07c.29,31.24.03,63.07-16.3,90.62-7.26,12.25-16.58,22.63-28.55,30.09-16.82,10.49-36.83,10.33-53.53-.2-10.53-6.64-18.42-15.61-24.93-26.31-10.74-17.67-19.7-35.63-26.93-55.14-11.43-30.82-18.25-62.78-20.22-95.62-.16-2.59,1.53-4.65.79-6.77h17.51Z"/>
      <path d="M841.76,133.16v91.7c-.83.03-1.48-.4-2.22-1.17-9.43-9.9-19.37-18.9-31.02-26.14-16.27-10.11-35.94-15.18-51.72-26.47-10.96-7.84-19.29-18.57-22.91-31.53-3.14-11.23-1.08-22.93,6.25-31.62,9.28-10.99,20.87,3.03,26.46,7.67,9.21,7.66,19.48,13.74,30.42,18.53,14.88,6.52,30.59,6.04,44.74-.97Z"/>
      <path d="M841.76,546.19v36.19l-51.25,12.7c-15.83,3.92-30.46,9.65-44.95,16.92-27.32,13.71-50.08,34.25-65.36,60.54-16.91,29.11-18.57,63.19-4.25,93.76,5.73,12.22,13.02,23.01,21.55,33.56,4.87,6.02,10.41,11.13,14.41,18.52-20.74-11.45-37.25-29.02-47.88-49.55-26.14-50.5-5.35-108.08,39.41-138.85l26.03-17.89,30.68-21.82c23.89-16.99,54.01-35.77,81.61-44.08Z"/>
      <path d="M841.76,681.07v20.04l-22.21-12.51c-12.1-6.81-25.21-9.15-38.89-6.57-12.88,2.43-22.37,11.03-26.69,23.27-7.81,22.14,2.46,38.93,19.64,52.28,28.98,22.52,50.08,50.45,55.09,87.31h-22.86c3.56-33.15-16.74-57.41-41.68-76.71-12.04-9.31-21.14-21.05-25.3-35.88-3.65-13.02-2.89-26.43,2.81-38.66,12.83-27.56,45.54-35.03,72.21-23.38,9.37,4.09,18.37,7.99,27.88,10.8Z"/>
      <path d="M0,689.38v-45.11c.97-.11,1.64-.71,2.55-1.58,10.15-9.62,16.19-22.51,17.07-36.85.91-14.91,0-29.46-2.36-44.19-2.22-13.91-7.2-26.6-15.1-38.03-.62-.9-1.33-1.27-2.16-1.2v-30.3c17.84,9.09,27.87,29.92,32.08,49.33,3.06,14.11,5.28,27.83,6.83,42.22,3.15,29.34.63,59.36-14.39,85.02-5.68,9.71-14.13,17.66-24.51,20.69Z"/>
      <path d="M22.22,0c-.78,13.78.4,27.41,4.98,40.78l11.48,33.52c3.34,9.75,6.88,18.99,8.5,29.3,2.89,18.38-1.26,36.66-9.83,52.99-7.58,14.44-21.05,29.26-37.35,31.91v-25.58c1.89.4,10.78-9.83,12.5-11.86,13.19-15.56,19.33-35.02,17.89-55.51-.75-10.64-3.18-20.37-6.71-30.36l-10.01-28.37C9.41,24.73,8.53,12.44,9.43,0h12.79Z"/>
      <path d="M134.51,844.89h-14.95c-.42-1.45-1.84-2.25-2.92-3.52l-12.71-14.86c-9.99-11.68-19.06-19.66-35.23-19.5-23.24.23-34.96,17.6-39.25,37.88H10.43c6.16-28.46,21.28-70.4,58.94-63.18,19.28,3.7,29.58,19.58,41.5,33.78,8.21,9.78,16.92,18.88,23.64,29.4Z"/>
      <path d="M729.97,0c-.2,1.09.61,1.75,1.55,2.54l20.74,17.61c6.59,5.6,13.32,10.16,21.24,13.72,15.5,6.97,33.06,6.64,47.9-1.69,6.03-3.39,11.16-7.43,16.56-11.66,1.22-.96,2.4-1.87,3.8-1.67v31.5c-39.46,22.59-69.44,3.21-101.18-21.27-15.64-12.07-30.95-23.7-50.94-27.94-.72-.15-.92-.73-.75-1.14h41.08Z"/>
      <path d="M824.92,0c.71,1.97-8.52,10.4-10.4,11.87-7.61,5.99-17.16,7.22-26.3,3.91-7.16-2.59-12.93-7.24-18.31-12.63-1.01-1.01-2.17-1.83-2.23-3.16h57.24Z"/>
      <path d="M0,130.61V48.47c2.56.01,6.09,12.33,6.59,14.99,4.25,22.45,6.65,45.15-4.64,65.81-.52.96-1.07,1.46-1.95,1.33Z"/>
      <path d="M92.62,844.89h-38.53c1.53-4.78,4.4-9.45,9.05-12.21,11.29-6.7,24.52,1.61,29.48,12.21Z"/>
      <path d="M570.31,562c-4.82,19.5-24.57,26.19-28.69,21.94-.95-.98-2.2-3.01-2.16-5.02.5-27.33-15.09-44.83-36.99-58.65-2.82-1.78-6-4.36-6.22-7.98-.37-6.28,3.41-12.15,8.76-15.59,15.46-9.95,41.7-16.9,56.28-.94,14.62,16.01,13.9,46.5,9.02,66.25Z"/>
      <path d="M320.08,309.36c-4.6.66-8.12-2-9.29-5.9-.93-3.1-1.04-5.98-.92-9.33.81-23.82,1.64-47.18,3.67-70.83.29-3.37,2.01-7.03,4.8-8.6,5.97-3.35,13.31-.51,16.27,5.77,9.36,19.85,13.18,41.69,10.94,63.62-1.42,13.88-11.54,23.29-25.47,25.28Z"/>
      <path d="M441.43,109.81c-6.95,24.04-22.54,37.19-46.65,41.29l-29.65-17.27c-10.48-6.11-20.3-12.49-29.7-20.09-6.14-4.97-10.58-10.74-12.47-18.54-2.64-10.91-1.46-22.15,3.48-32.13,6.18-12.48,20.63-16.38,32.6-9.13,5.73,3.47,10.66,7.78,15.91,12.09,13.17,10.81,29.45,15.12,46.19,11.73,4.51-.91,9.22-.96,13.66-.22,14.78,2.47,9.63,21.9,6.63,32.28Z"/>
      <path d="M436.65,810.54c-6.64,1.61-12.83,1.75-18.79-1.16-7.69-3.76-6.12-12.85-2.89-19.03,10.53-20.1,21.04-39.83,32.57-59.25,1.82-3.07,5.1-5.2,7.68-5.69,3.56-.68,6.94.7,9.54,3.04,4.49,4.04,5.38,10.1,5.02,16.01l-1.47,23.96c-.47,7.65-2.68,14.66-5.97,21.46-5.14,10.6-13.93,17.82-25.69,20.67Z"/>
      <path d="M801.76,504.3c-7.88,1.88-15.44.57-21.46-4.61-11.6-9.99-17.98-23.88-18.9-39.21-1.61-27.02,6.94-57.09-10.58-82.09-8.7-12.42-15.7-12.67-27.17-19.86-6.2-3.89-10.11-9.92-10.95-17.41-1.51-13.34,5.18-26.3,16.55-33.38,9.41-5.85,24.21-7.41,31.42,4.19,2.88,4.63,4.01,9.54,5.59,14.8,5.09,16.98,8.17,33.81,10.39,51.45,3.62,28.84,7.64,53.99,23.92,78.4,6.42,9.63,13.08,21.08,13.09,32.78,0,7.55-4.64,13.22-11.9,14.95Z"/>
    </g>
  </g>
</svg>