<svg width="41" height="41" viewBox="0 0 41 41" fill="none" xmlns="http://www.w3.org/2000/svg">
<path d="M0.955566 10.064C0.955566 4.54112 5.43272 0.0639648 10.9556 0.0639648H30.9446C36.4675 0.0639648 40.9446 4.54112 40.9446 10.064V30.053C40.9446 35.5759 36.4675 40.053 30.9446 40.053H10.9556C5.43273 40.053 0.955566 35.5759 0.955566 30.053V10.064Z" fill="#748B56"/>
<g clip-path="url(#clip0_119_47)">
<path d="M25.9488 11.7271H23.4495C22.3447 11.7271 21.2852 12.1659 20.504 12.9471C19.7229 13.7283 19.284 14.7878 19.284 15.8926V18.3919H16.7847V21.7243H19.284V28.3892H22.6164V21.7243H25.1157L25.9488 18.3919H22.6164V15.8926C22.6164 15.6716 22.7042 15.4597 22.8604 15.3035C23.0167 15.1472 23.2286 15.0595 23.4495 15.0595H25.9488V11.7271Z" stroke="white" stroke-width="1.66621" stroke-linecap="round" stroke-linejoin="round"/>
</g>
<defs>
<clipPath id="clip0_119_47">
<rect width="19.9945" height="19.9945" fill="white" transform="translate(10.9529 10.061)"/>
</clipPath>
</defs>
</svg>
