<svg width="41" height="41" viewBox="0 0 41 41" fill="none" xmlns="http://www.w3.org/2000/svg">
<path d="M0.98877 10.064C0.98877 4.54112 5.46592 0.0639648 10.9888 0.0639648H30.9778C36.5007 0.0639648 40.9778 4.54112 40.9778 10.064V30.053C40.9778 35.5759 36.5007 40.053 30.9778 40.053H10.9888C5.46593 40.053 0.98877 35.5759 0.98877 30.053V10.064Z" fill="url(#paint0_linear_119_37)"/>
<g clip-path="url(#clip0_119_37)">
<path d="M25.1489 11.7271H16.8179C14.5173 11.7271 12.6523 13.592 12.6523 15.8926V24.2236C12.6523 26.5242 14.5173 28.3892 16.8179 28.3892H25.1489C27.4495 28.3892 29.3144 26.5242 29.3144 24.2236V15.8926C29.3144 13.592 27.4495 11.7271 25.1489 11.7271Z" stroke="white" stroke-width="1.66621" stroke-linecap="round" stroke-linejoin="round"/>
<path d="M24.3158 19.5336C24.4186 20.2269 24.3002 20.935 23.9774 21.5572C23.6545 22.1793 23.1438 22.6839 22.5177 22.999C21.8916 23.3141 21.182 23.4238 20.49 23.3125C19.798 23.2011 19.1587 22.8744 18.6631 22.3787C18.1674 21.8831 17.8407 21.2438 17.7293 20.5518C17.618 19.8598 17.7277 19.1502 18.0428 18.5241C18.3579 17.898 18.8625 17.3873 19.4846 17.0644C20.1068 16.7416 20.8149 16.6232 21.5082 16.726C22.2155 16.8309 22.8703 17.1604 23.3758 17.666C23.8814 18.1716 24.2109 18.8263 24.3158 19.5336Z" stroke="white" stroke-width="1.66621" stroke-linecap="round" stroke-linejoin="round"/>
<path d="M25.5654 15.4761H25.5738" stroke="white" stroke-width="1.66621" stroke-linecap="round" stroke-linejoin="round"/>
</g>
<defs>
<linearGradient id="paint0_linear_119_37" x1="0.98877" y1="0.0639648" x2="40.9778" y2="40.053" gradientUnits="userSpaceOnUse">
<stop stop-color="#AD46FF"/>
<stop offset="1" stop-color="#F6339A"/>
</linearGradient>
<clipPath id="clip0_119_37">
<rect width="19.9945" height="19.9945" fill="white" transform="translate(10.9861 10.061)"/>
</clipPath>
</defs>
</svg>
