<svg width="41" height="41" viewBox="0 0 41 41" fill="none" xmlns="http://www.w3.org/2000/svg">
<path d="M0.972168 10.064C0.972168 4.54112 5.44932 0.0639648 10.9722 0.0639648H30.9612C36.4841 0.0639648 40.9612 4.54112 40.9612 10.064V30.053C40.9612 35.5759 36.4841 40.053 30.9612 40.053H10.9722C5.44933 40.053 0.972168 35.5759 0.972168 30.053V10.064Z" fill="#0077B5"/>
<g clip-path="url(#clip0_119_42)">
<path d="M24.2992 16.7261C25.6249 16.7261 26.8963 17.2527 27.8337 18.1901C28.7712 19.1276 29.2978 20.399 29.2978 21.7247V27.5564H25.9654V21.7247C25.9654 21.2828 25.7898 20.859 25.4774 20.5465C25.1649 20.234 24.7411 20.0585 24.2992 20.0585C23.8573 20.0585 23.4335 20.234 23.121 20.5465C22.8085 20.859 22.633 21.2828 22.633 21.7247V27.5564H19.3005V21.7247C19.3005 20.399 19.8272 19.1276 20.7646 18.1901C21.702 17.2527 22.9734 16.7261 24.2992 16.7261Z" stroke="white" stroke-width="1.66621" stroke-linecap="round" stroke-linejoin="round"/>
<path d="M15.9682 17.5591H12.6357V27.5563H15.9682V17.5591Z" stroke="white" stroke-width="1.66621" stroke-linecap="round" stroke-linejoin="round"/>
<path d="M14.302 15.0595C15.2222 15.0595 15.9682 14.3135 15.9682 13.3933C15.9682 12.473 15.2222 11.7271 14.302 11.7271C13.3817 11.7271 12.6357 12.473 12.6357 13.3933C12.6357 14.3135 13.3817 15.0595 14.302 15.0595Z" stroke="white" stroke-width="1.66621" stroke-linecap="round" stroke-linejoin="round"/>
</g>
<defs>
<clipPath id="clip0_119_42">
<rect width="19.9945" height="19.9945" fill="white" transform="translate(10.9695 10.061)"/>
</clipPath>
</defs>
</svg>
