<?xml version="1.0" encoding="UTF-8" standalone="no"?><!DOCTYPE svg PUBLIC "-//W3C//DTD SVG 1.1//EN" "http://www.w3.org/Graphics/SVG/1.1/DTD/svg11.dtd"><svg width="100%" height="100%" viewBox="185 365 442 435" version="1.1" xmlns="http://www.w3.org/2000/svg" xmlns:xlink="http://www.w3.org/1999/xlink" xml:space="preserve" xmlns:serif="http://www.serif.com/" style="fill-rule:evenodd;clip-rule:evenodd;stroke-linejoin:round;stroke-miterlimit:2;"><g><rect x="187.198" y="364.974" width="462.557" height="435.352" style="fill:#677b4c;fill-rule:nonzero;"/><g><clipPath id="_clip1"><path d="M296.838,582.65c-26.944,-0 -48.786,23.039 -48.786,51.467c-0,28.42 21.842,51.468 48.786,51.468c26.943,-0 48.785,-23.048 48.785,-51.468c0,-28.428 -21.842,-51.467 -48.785,-51.467Z"/></clipPath><g clip-path="url(#_clip1)"><rect x="248.052" y="582.65" width="97.571" height="102.909" style="fill:#fff;fill-rule:nonzero;"/></g></g><g><g><path d="M373.378,684.36l-0,-14.876l11.131,0c2.497,0 4.79,-0.472 6.882,-1.416c2.091,-0.962 3.753,-2.783 4.992,-5.465c1.257,-2.673 1.889,-6.485 1.889,-11.435l0,-138.81c0,-4.942 -0.674,-8.652 -2.024,-11.131c-1.332,-2.497 -3.052,-4.166 -5.161,-5.027c-2.091,-0.851 -4.478,-1.281 -7.151,-1.281l-10.558,-0l-0,-14.91l88.413,-0c19.834,-0 36.768,3.727 50.801,11.165c14.032,7.447 24.81,18.469 32.349,33.058c7.531,14.598 11.301,32.771 11.301,54.512c-0,20.804 -3.534,39.18 -10.592,55.119c-7.067,15.922 -17.609,28.327 -31.642,37.207c-14.015,8.863 -31.506,13.29 -52.487,13.29l-88.143,0Zm82.105,-17.473c12.211,-0 22.373,-3.517 30.494,-10.558c8.112,-7.059 14.269,-17.17 18.451,-30.326c4.2,-13.172 6.308,-28.926 6.308,-47.259c0,-18.3 -2.108,-33.463 -6.308,-45.472c-4.182,-12.025 -10.339,-21.049 -18.451,-27.053c-8.121,-6.021 -18.182,-9.04 -30.191,-9.04l-14.876,-0l0,169.708l14.573,-0Z" style="fill:#fff;fill-rule:nonzero;"/></g></g></g></svg>