<?xml version="1.0" encoding="UTF-8" standalone="no"?><!DOCTYPE svg PUBLIC "-//W3C//DTD SVG 1.1//EN" "http://www.w3.org/Graphics/SVG/1.1/DTD/svg11.dtd"><svg width="100%" height="100%" viewBox="0 0 842 1191" version="1.1" xmlns="http://www.w3.org/2000/svg" xmlns:xlink="http://www.w3.org/1999/xlink" xml:space="preserve" xmlns:serif="http://www.serif.com/" style="fill-rule:evenodd;clip-rule:evenodd;stroke-linejoin:round;stroke-miterlimit:2;"><g><g><clipPath id="_clip1"><path d="M264.71,521.508c-35.503,-0 -64.284,30.358 -64.284,67.818c0,37.459 28.781,67.818 64.284,67.818c35.515,-0 64.296,-30.359 64.296,-67.818c-0,-37.46 -28.781,-67.818 -64.296,-67.818Z"/></clipPath><g clip-path="url(#_clip1)"><rect x="200.426" y="521.508" width="128.58" height="135.614" style="fill:#677b4c;fill-rule:nonzero;"/></g></g><g><g><path d="M365.569,655.534l-0,-19.602l14.668,0c3.289,0 6.312,-0.622 9.068,-1.866c2.755,-1.267 4.945,-3.667 6.578,-7.201c1.656,-3.523 2.489,-8.545 2.489,-15.068l0,-182.908c0,-6.511 -0.889,-11.401 -2.667,-14.668c-1.755,-3.289 -4.022,-5.489 -6.8,-6.623c-2.756,-1.122 -5.901,-1.689 -9.424,-1.689l-13.912,0l-0,-19.646l116.5,-0c26.136,-0 48.45,4.911 66.941,14.712c18.49,9.813 32.692,24.336 42.626,43.56c9.923,19.236 14.89,43.183 14.89,71.83c0,27.414 -4.656,51.627 -13.956,72.629c-9.313,20.98 -23.203,37.326 -41.694,49.028c-18.468,11.678 -41.515,17.512 -69.162,17.512l-116.145,0Zm108.189,-23.024c16.09,-0 29.48,-4.634 40.181,-13.913c10.69,-9.301 18.802,-22.624 24.314,-39.959c5.534,-17.358 8.312,-38.115 8.312,-62.273c-0,-24.114 -2.778,-44.093 -8.312,-59.917c-5.512,-15.846 -13.624,-27.736 -24.314,-35.648c-10.701,-7.934 -23.958,-11.913 -39.781,-11.913l-19.602,0l-0,223.623l19.202,-0Z" style="fill:#1c1018;fill-rule:nonzero;"/></g></g></g></svg>