<svg xmlns="http://www.w3.org/2000/svg" viewBox="0 0 2738 1236"><g fill="#e60000"><path d="M2316.76 569.43l12.24-62.94h-99.13l18.35-94.41h-66.09l-18.35 94.41h-99.13l18.35-94.41h-66.1l-18.34 94.41h-99.14l-12.23 62.94h99.13L1968 663.85h-99.14l-12.23 62.94h99.14l-18.36 94.42h66.09l18.36-94.42H2121l-18.36 94.42h66.1l18.36-94.42h99.13l12.24-62.94h-99.14l18.35-94.42zm-183.57 94.42h-99.14l18.36-94.42h99.12zM626.13 821l-79.85-163.16h-57.43V821H409V412h160.26C652.55 412 702 468.86 702 537.22c0 57.45-35.05 93-74.68 107.42L718.61 821zm-62-337.76h-75.28v108h75.25c35 0 58-22.41 58-54s-22.97-54.02-58-54.02zM944.46 821v-27.59c-19.53 20.68-47.1 31-74.68 31-29.86 0-54-9.76-70.65-26.41-24.12-24.14-30.44-52.27-30.44-85V521.71h74.68v180.93c0 40.8 25.85 54.58 49.39 54.58s50-13.78 50-54.58V521.71h74.68V821zM1194.91 821c-60.89 0-86.73-43.08-86.73-85.58V578.14h-31.6v-56.87h31.6v-79.4h74.67v79.4h52.84v56.87h-52.84v152.65c0 17.25 8 27 25.84 27h27V821zM1360.24 694.61c0 38.48 23.55 66.62 65.48 66.62 32.75 0 48.83-9.19 67.79-28.14l45.38 44.23c-30.46 30.45-59.75 47.1-113.75 47.1-70.64 0-138.42-32.16-138.42-153.36 0-97.65 52.84-152.79 130.39-152.79 83.28 0 130.39 60.88 130.39 143v33.32zm106.84-83.29c-8-17.81-24.7-31-50-31s-41.94 13.21-50 31c-4.6 10.91-6.33 18.95-6.9 32.16H1474c-.6-13.21-2.34-21.25-6.92-32.16zM1809.43 528.49c-13.71-7.29-28.69-10.22-47.06-10.22-32.17 0-60.9 14.93-75.25 32.16v-28.72h-72.95V821h74.67V640.61c0-37.91 25.36-52.94 48.26-55.14 27.24-2.62 42.12 11.23 42.12 11.23z"/></g></svg>