<svg width="1000" height="314" viewBox="0 0 1000 314" fill="none" xmlns="http://www.w3.org/2000/svg">
<path d="M222.398 54.1695H141.447V311.038H80.9512V54.1695H0L0 0L222.398 0V54.1695Z" fill="#402673"/>
<path d="M400.267 215.978H259.807C259.807 245.472 277.041 266.29 308.925 266.29C333.484 266.29 345.548 258.917 359.766 245.038L393.804 278.435C370.968 301.856 348.994 314 308.494 314C255.498 314 204.657 289.712 204.657 198.196C204.657 124.462 244.296 82.8247 302.462 82.8247C364.936 82.8247 400.267 127.932 400.267 192.123V215.978ZM345.117 177.377C344.686 167.401 343.824 161.329 339.946 153.088C333.914 139.643 321.419 129.667 302.462 129.667C283.504 129.667 271.009 139.643 264.977 153.088C261.099 161.329 260.238 167.401 259.807 177.377H345.117Z" fill="#402673"/>
<path d="M557.478 311.038H526.316C479.791 311.038 460.04 278.385 460.04 246.168L460.04 127.525H435.9V84.4244H460.04L460.04 23.698H517.099L517.099 84.4244H557.478V127.525H517.099L517.099 242.686C517.099 255.746 523.243 263.148 536.849 263.148H557.478V311.038Z" fill="#402673"/>
<path d="M990.738 119.24L1000 71.5538H925.179L939.023 0H889.126L875.282 71.5047H800.461L814.292 0H764.395L750.551 71.5047H675.73L666.517 119.191H741.338L727.494 190.745H652.685L643.472 238.419H718.294L704.45 309.972H754.347L768.191 238.419H843.012L829.168 309.972H879.065L892.909 238.419H967.73L976.992 190.732H902.171L916.015 119.179H990.787L990.738 119.228V119.24ZM852.176 190.732H777.355L791.198 119.179H866.02L852.176 190.732Z" fill="#402673"/>
</svg>
