<?xml version="1.0" encoding="UTF-8" standalone="no"?><!DOCTYPE svg PUBLIC "-//W3C//DTD SVG 1.1//EN" "http://www.w3.org/Graphics/SVG/1.1/DTD/svg11.dtd"><svg width="100%" height="100%" viewBox="20 170 550 110" version="1.1" xmlns="http://www.w3.org/2000/svg" xmlns:xlink="http://www.w3.org/1999/xlink" xml:space="preserve" xmlns:serif="http://www.serif.com/" style="fill-rule:evenodd;clip-rule:evenodd;stroke-linejoin:round;stroke-miterlimit:2;"><g><g><g><path d="M176.386,249.61l0,-4.938l3.695,-0c0.829,-0 1.591,-0.157 2.285,-0.47c0.694,-0.32 1.246,-0.924 1.657,-1.814c0.417,-0.888 0.627,-2.153 0.627,-3.797l0,-46.08c0,-1.64 -0.224,-2.872 -0.672,-3.695c-0.442,-0.829 -1.013,-1.383 -1.713,-1.668c-0.694,-0.283 -1.486,-0.426 -2.374,-0.426l-3.505,-0l0,-4.95l29.35,0c6.585,0 12.206,1.238 16.864,3.707c4.659,2.472 8.237,6.131 10.739,10.974c2.5,4.846 3.752,10.879 3.752,18.096c-0,6.907 -1.173,13.007 -3.516,18.298c-2.346,5.285 -5.846,9.403 -10.504,12.351c-4.653,2.943 -10.459,4.412 -17.424,4.412l-29.261,0Zm27.256,-5.8c4.054,-0 7.427,-1.168 10.123,-3.505c2.693,-2.344 4.737,-5.7 6.126,-10.067c1.394,-4.373 2.094,-9.603 2.094,-15.689c-0,-6.075 -0.7,-11.108 -2.094,-15.095c-1.389,-3.992 -3.433,-6.987 -6.126,-8.981c-2.696,-1.999 -6.036,-3.001 -10.022,-3.001l-4.938,0l-0,56.338l4.837,-0Z" style="fill:#222;fill-rule:nonzero;"/></g></g><g><g><path d="M240.415,249.61l-0,-4.938l1.041,-0c1.075,-0 2.022,-0.19 2.845,-0.571c0.828,-0.381 1.573,-1.058 2.239,-2.038c0.664,-0.986 1.313,-2.425 1.949,-4.323l19.283,-55.968l12.262,0l18.712,56.629c0.506,1.643 1.091,2.928 1.758,3.852c0.663,0.918 1.405,1.554 2.228,1.904c0.829,0.344 1.747,0.515 2.755,0.515l1.433,-0l0,4.938l-29.451,0l0,-4.938l3.326,-0c1.008,-0 1.921,-0.283 2.744,-0.851c0.828,-0.574 1.243,-1.461 1.243,-2.665c-0,-0.507 -0.051,-1.044 -0.146,-1.613c-0.09,-0.574 -0.218,-1.111 -0.381,-1.612c-0.156,-0.507 -0.299,-0.921 -0.425,-1.243l-3.035,-9.496l-21.377,-0l-2.564,8.163c-0.068,0.51 -0.199,1.095 -0.392,1.758c-0.188,0.667 -0.345,1.35 -0.471,2.049c-0.128,0.695 -0.19,1.297 -0.19,1.803c0,1.204 0.381,2.122 1.142,2.755c0.762,0.636 1.742,0.952 2.945,0.952l3.617,-0l0,4.938l-23.09,0Zm20.895,-28.028l17.772,-0l-4.849,-16.529c-0.442,-1.523 -0.885,-3.074 -1.333,-4.658c-0.442,-1.582 -0.867,-3.164 -1.276,-4.748c-0.412,-1.582 -0.778,-3.071 -1.098,-4.468c-0.313,1.338 -0.694,2.766 -1.142,4.289c-0.442,1.517 -0.884,3.051 -1.332,4.602c-0.443,1.545 -0.913,3.018 -1.411,4.412l-5.331,17.1Z" style="fill:#222;fill-rule:nonzero;"/></g></g><g><g><path d="M342.642,250.562c-7.345,0 -13.446,-1.456 -18.297,-4.367c-4.846,-2.917 -8.472,-6.991 -10.873,-12.217c-2.405,-5.224 -3.606,-11.349 -3.606,-18.376c-0,-6.845 1.248,-12.878 3.751,-18.096c2.5,-5.224 6.218,-9.309 11.153,-12.251c4.941,-2.948 11.025,-4.423 18.253,-4.423c4.874,-0 8.959,0.493 12.251,1.478c3.292,0.98 5.778,2.293 7.458,3.942c1.679,1.643 2.519,3.477 2.519,5.498c0,2.217 -0.968,4.104 -2.9,5.655c-1.934,1.554 -4.801,2.329 -8.6,2.329c-0,-2.531 -0.398,-4.762 -1.187,-6.696c-0.792,-1.932 -1.993,-3.452 -3.606,-4.558c-1.612,-1.111 -3.69,-1.668 -6.226,-1.668c-4.241,-0 -7.659,1.108 -10.257,3.325c-2.598,2.218 -4.499,5.465 -5.7,9.743c-1.204,4.272 -1.803,9.512 -1.803,15.722c-0,6.145 0.616,11.355 1.848,15.632c1.237,4.272 3.25,7.514 6.035,9.731c2.783,2.218 6.456,3.326 11.019,3.326c1.075,0 2.15,-0.061 3.225,-0.19c1.081,-0.126 2.128,-0.317 3.136,-0.571l-0,-14.155c-0,-1.707 -0.221,-3.051 -0.661,-4.031c-0.442,-0.985 -1.12,-1.668 -2.038,-2.049c-0.918,-0.381 -2.077,-0.571 -3.471,-0.571l-1.232,-0l-0,-4.939l27.737,0l0,4.939l-1.041,-0c-1.209,-0 -2.195,0.207 -2.956,0.616c-0.756,0.411 -1.308,1.125 -1.658,2.138c-0.352,1.017 -0.526,2.442 -0.526,4.278l0,15.767c-3.421,1.652 -6.904,2.906 -10.448,3.763c-3.547,0.851 -7.312,1.276 -11.299,1.276Z" style="fill:#222;fill-rule:nonzero;"/></g></g><g><g><path d="M375.8,249.61l-0,-4.938l3.606,-0c0.887,-0 1.679,-0.14 2.374,-0.426c0.694,-0.291 1.245,-0.845 1.657,-1.668c0.417,-0.82 0.627,-1.993 0.627,-3.516l-0,-46.259c-0,-1.775 -0.224,-3.091 -0.672,-3.942c-0.442,-0.857 -0.994,-1.428 -1.657,-1.713c-0.666,-0.283 -1.476,-0.426 -2.43,-0.426l-3.505,-0l-0,-4.95l49.305,0l0.381,17.391l-6.271,0l-0.482,-4.367c-0.061,-1.582 -0.33,-2.912 -0.806,-3.987c-0.47,-1.08 -1.12,-1.906 -1.949,-2.474c-0.823,-0.574 -1.898,-0.863 -3.225,-0.863l-14.535,0l0,23.852l20.997,0l-0,5.61l-20.997,0l0,26.976l17.189,0c1.336,0 2.414,-0.316 3.237,-0.951c0.82,-0.633 1.467,-1.504 1.937,-2.61c0.476,-1.111 0.812,-2.362 1.008,-3.751l0.66,-4.378l6.182,-0l-0.571,17.39l-52.06,0Z" style="fill:#222;fill-rule:nonzero;"/></g></g><g><g><path d="M433.752,249.61l0,-4.938l3.225,-0c1.014,-0 1.885,-0.14 2.61,-0.426c0.73,-0.291 1.315,-0.876 1.758,-1.758c0.448,-0.887 0.672,-2.22 0.672,-3.997l-0,-45.98c-0,-1.707 -0.224,-2.973 -0.672,-3.796c-0.443,-0.828 -1.028,-1.366 -1.758,-1.612c-0.725,-0.252 -1.532,-0.381 -2.419,-0.381l-3.416,-0l0,-4.95l20.426,0l30.582,48.174l-0,-37.435c-0,-1.64 -0.222,-2.892 -0.661,-3.751c-0.442,-0.857 -1.014,-1.411 -1.713,-1.657c-0.695,-0.252 -1.487,-0.381 -2.374,-0.381l-3.416,-0l0,-4.95l23.079,0l0,4.95l-3.415,-0c-0.89,-0 -1.699,0.143 -2.43,0.426c-0.725,0.285 -1.293,0.87 -1.702,1.758c-0.412,0.89 -0.616,2.217 -0.616,3.986l-0,56.718l-8.936,0l-33.908,-53.011l0,41.892c0,1.777 0.185,3.11 0.56,3.997c0.381,0.882 0.935,1.467 1.669,1.758c0.73,0.286 1.57,0.426 2.519,0.426l3.516,-0l0,4.938l-23.18,0Z" style="fill:#222;fill-rule:nonzero;"/></g></g><g><g><path d="M503.581,249.61l-0,-4.938l3.605,-0c0.888,-0 1.68,-0.14 2.374,-0.426c0.695,-0.291 1.246,-0.845 1.658,-1.668c0.417,-0.82 0.627,-1.993 0.627,-3.516l-0,-46.259c-0,-1.775 -0.224,-3.091 -0.672,-3.942c-0.443,-0.857 -0.994,-1.428 -1.657,-1.713c-0.667,-0.283 -1.476,-0.426 -2.43,-0.426l-3.505,-0l-0,-4.95l49.305,0l0.38,17.391l-6.271,0l-0.481,-4.367c-0.062,-1.582 -0.33,-2.912 -0.806,-3.987c-0.471,-1.08 -1.12,-1.906 -1.949,-2.474c-0.823,-0.574 -1.898,-0.863 -3.225,-0.863l-14.535,0l0,23.852l20.996,0l0,5.61l-20.996,0l0,26.976l17.189,0c1.335,0 2.413,-0.316 3.236,-0.951c0.821,-0.633 1.467,-1.504 1.938,-2.61c0.475,-1.111 0.811,-2.362 1.007,-3.751l0.661,-4.378l6.181,-0l-0.571,17.39l-52.059,0Z" style="fill:#222;fill-rule:nonzero;"/></g></g><g><g><path d="M38.517,263.225c1.873,0 3.303,0.487 4.289,1.456c0.991,0.971 1.489,2.413 1.489,4.322c0,1.912 -0.498,3.354 -1.489,4.323c-0.986,0.971 -2.416,1.456 -4.289,1.456l-4.154,-0l-0,-11.557l4.154,0Zm-0.134,9.642c1.192,-0 2.085,-0.303 2.676,-0.907c0.588,-0.611 0.885,-1.596 0.885,-2.957c-0,-1.349 -0.297,-2.329 -0.885,-2.934c-0.591,-0.61 -1.484,-0.918 -2.676,-0.918l-1.736,0l-0,7.716l1.736,-0Z" style="fill:#677b4c;fill-rule:nonzero;"/></g></g><g><g><rect x="46.708" y="263.225" width="2.284" height="11.556" style="fill:#677b4c;fill-rule:nonzero;"/></g></g><g><g><path d="M56.11,274.95c-0.963,-0 -1.8,-0.219 -2.509,-0.661c-0.702,-0.44 -1.243,-1.103 -1.623,-1.993c-0.381,-0.888 -0.571,-1.985 -0.571,-3.293c-0,-1.313 0.226,-2.413 0.683,-3.303c0.462,-0.887 1.1,-1.548 1.914,-1.982c0.812,-0.431 1.759,-0.65 2.834,-0.65c1.103,0 2.043,0.208 2.822,0.616c0.783,0.412 1.332,1.019 1.646,1.826l-1.669,1.019l-0.19,-0.012c-0.241,-0.515 -0.577,-0.89 -1.008,-1.131c-0.426,-0.238 -0.96,-0.358 -1.601,-0.358c-0.994,0 -1.756,0.319 -2.285,0.952c-0.532,0.627 -0.795,1.635 -0.795,3.023c0,1.397 0.246,2.414 0.739,3.046c0.493,0.636 1.221,0.952 2.184,0.952c0.834,0 1.45,-0.185 1.848,-0.56c0.394,-0.381 0.593,-0.94 0.593,-1.68l0,-0.503l-2.732,-0l-0,-1.848l4.994,-0l0,6.372l-2.172,-0l-0,-1.546l-0.168,-0.022c-0.241,0.554 -0.602,0.982 -1.087,1.288c-0.478,0.296 -1.094,0.448 -1.847,0.448Z" style="fill:#677b4c;fill-rule:nonzero;"/></g></g><g><g><rect x="64.045" y="263.225" width="2.284" height="11.556" style="fill:#677b4c;fill-rule:nonzero;"/></g></g><g><g><path d="M77.098,263.225l-0,1.926l-3.337,0l-0,9.631l-2.274,-0l0,-9.631l-3.337,0l0,-1.926l8.948,0Z" style="fill:#677b4c;fill-rule:nonzero;"/></g></g><g><g><path d="M87.469,274.782l-2.407,-0l-0.863,-2.666l-4.423,0l-0.873,2.666l-2.341,-0l3.987,-11.557l2.934,0l3.986,11.557Zm-5.599,-9.138l-1.478,4.558l3.169,-0l-1.489,-4.558l-0.202,-0Z" style="fill:#677b4c;fill-rule:nonzero;"/></g></g><g><g><path d="M91.424,263.225l-0,9.642l5.195,-0l0,1.915l-7.48,-0l0,-11.557l2.285,0Z" style="fill:#677b4c;fill-rule:nonzero;"/></g></g><g><g><rect x="98.491" y="263.225" width="2.284" height="11.556" style="fill:#677b4c;fill-rule:nonzero;"/></g></g><g><g><path d="M107.4,274.95c-0.801,-0 -1.512,-0.098 -2.139,-0.292c-0.621,-0.201 -1.139,-0.462 -1.556,-0.783c-0.42,-0.32 -0.736,-0.675 -0.952,-1.064l1.254,-1.534l0.19,-0c0.35,0.523 0.79,0.937 1.322,1.243c0.537,0.299 1.164,0.448 1.881,0.448c0.61,-0 1.07,-0.126 1.377,-0.381c0.314,-0.261 0.471,-0.616 0.471,-1.064c-0,-0.274 -0.053,-0.504 -0.157,-0.683c-0.098,-0.185 -0.263,-0.347 -0.493,-0.482c-0.232,-0.134 -0.546,-0.246 -0.94,-0.336l-1.478,-0.347c-1.039,-0.238 -1.812,-0.63 -2.318,-1.176c-0.51,-0.551 -0.762,-1.268 -0.762,-2.15c0,-0.649 0.16,-1.22 0.482,-1.713c0.327,-0.498 0.8,-0.884 1.422,-1.153c0.627,-0.275 1.377,-0.415 2.251,-0.415c0.887,0 1.648,0.118 2.284,0.348c0.633,0.232 1.17,0.59 1.612,1.075l-1.131,1.556l-0.201,0c-0.33,-0.341 -0.706,-0.599 -1.131,-0.773c-0.42,-0.17 -0.896,-0.257 -1.433,-0.257c-0.628,-0 -1.106,0.112 -1.434,0.336c-0.33,0.218 -0.493,0.521 -0.493,0.907c0,0.367 0.115,0.658 0.348,0.873c0.229,0.219 0.627,0.387 1.187,0.504l1.523,0.314c1.119,0.241 1.928,0.644 2.43,1.209c0.506,0.568 0.761,1.308 0.761,2.217c0,0.725 -0.157,1.355 -0.47,1.893c-0.308,0.532 -0.773,0.946 -1.4,1.243c-0.627,0.291 -1.397,0.437 -2.307,0.437Z" style="fill:#677b4c;fill-rule:nonzero;"/></g></g><g><g><path d="M115.988,269.709l0,3.158l5.51,-0l-0,1.915l-7.794,-0l-0,-11.557l7.67,0l0,1.915l-5.386,0l0,2.71l4.703,-0l0,1.859l-4.703,-0Z" style="fill:#677b4c;fill-rule:nonzero;"/></g></g><g><g><path d="M123.632,274.782l0,-11.557l4.636,0c1.193,0 2.094,0.277 2.699,0.829c0.61,0.554 0.918,1.316 0.918,2.284c0,0.703 -0.179,1.277 -0.537,1.725c-0.353,0.448 -0.879,0.789 -1.579,1.019l-0,0.168c0.358,0.157 0.649,0.392 0.873,0.705c0.224,0.314 0.437,0.773 0.639,1.378l1.153,3.449l-2.34,-0l-1.131,-3.449c-0.121,-0.35 -0.255,-0.619 -0.404,-0.807c-0.142,-0.193 -0.324,-0.336 -0.548,-0.425c-0.224,-0.09 -0.515,-0.135 -0.874,-0.135l-1.22,0l-0,4.816l-2.285,-0Zm4.368,-6.618c1.103,-0 1.657,-0.518 1.657,-1.557c-0,-1.044 -0.554,-1.568 -1.657,-1.568l-2.083,0l-0,3.125l2.083,-0Z" style="fill:#677b4c;fill-rule:nonzero;"/></g></g><g><g><rect x="134.43" y="263.225" width="2.284" height="11.556" style="fill:#677b4c;fill-rule:nonzero;"/></g></g><g><g><path d="M141.939,274.782l-2.217,-0l-0,-11.557l2.62,0l4.636,7.447l0.202,-0.034l-0,-7.413l2.194,0l0,11.557l-2.34,-0l-4.905,-7.951l-0.19,0.034l-0,7.917Z" style="fill:#677b4c;fill-rule:nonzero;"/></g></g><g><g><path d="M156.493,274.95c-0.963,-0 -1.8,-0.219 -2.509,-0.661c-0.702,-0.44 -1.243,-1.103 -1.623,-1.993c-0.381,-0.888 -0.571,-1.985 -0.571,-3.293c-0,-1.313 0.226,-2.413 0.683,-3.303c0.462,-0.887 1.1,-1.548 1.915,-1.982c0.811,-0.431 1.758,-0.65 2.833,-0.65c1.103,0 2.043,0.208 2.822,0.616c0.783,0.412 1.332,1.019 1.646,1.826l-1.669,1.019l-0.19,-0.012c-0.241,-0.515 -0.577,-0.89 -1.008,-1.131c-0.426,-0.238 -0.96,-0.358 -1.601,-0.358c-0.994,0 -1.756,0.319 -2.285,0.952c-0.532,0.627 -0.795,1.635 -0.795,3.023c0,1.397 0.247,2.414 0.739,3.046c0.493,0.636 1.221,0.952 2.184,0.952c0.834,0 1.45,-0.185 1.848,-0.56c0.394,-0.381 0.593,-0.94 0.593,-1.68l0,-0.503l-2.732,-0l-0,-1.848l4.994,-0l0,6.372l-2.172,-0l-0,-1.546l-0.168,-0.022c-0.241,0.554 -0.602,0.982 -1.086,1.288c-0.479,0.296 -1.095,0.448 -1.848,0.448Z" style="fill:#677b4c;fill-rule:nonzero;"/></g></g><g><g><path d="M173.036,274.95c-1.052,-0 -1.987,-0.216 -2.799,-0.65c-0.807,-0.431 -1.442,-1.092 -1.904,-1.982c-0.456,-0.887 -0.683,-1.993 -0.683,-3.315c0,-1.321 0.227,-2.424 0.683,-3.314c0.462,-0.888 1.097,-1.546 1.904,-1.971c0.812,-0.431 1.747,-0.65 2.799,-0.65c1.058,0 1.994,0.219 2.8,0.65c0.806,0.425 1.436,1.083 1.892,1.971c0.454,0.89 0.683,1.993 0.683,3.314c0,1.322 -0.229,2.43 -0.683,3.326c-0.456,0.89 -1.086,1.551 -1.892,1.982c-0.806,0.426 -1.742,0.639 -2.8,0.639Zm0,-1.982c0.986,-0 1.736,-0.314 2.251,-0.941c0.515,-0.633 0.773,-1.641 0.773,-3.024c-0,-1.38 -0.258,-2.385 -0.773,-3.012c-0.515,-0.633 -1.265,-0.952 -2.251,-0.952c-0.985,0 -1.741,0.319 -2.262,0.952c-0.515,0.627 -0.772,1.632 -0.772,3.012c-0,1.383 0.257,2.391 0.772,3.024c0.521,0.627 1.277,0.941 2.262,0.941Z" style="fill:#677b4c;fill-rule:nonzero;"/></g></g><g><g><path d="M184.936,274.95c-0.963,-0 -1.8,-0.219 -2.509,-0.661c-0.702,-0.44 -1.243,-1.103 -1.623,-1.993c-0.381,-0.888 -0.572,-1.985 -0.572,-3.293c0,-1.313 0.227,-2.413 0.684,-3.303c0.461,-0.887 1.1,-1.548 1.914,-1.982c0.812,-0.431 1.758,-0.65 2.834,-0.65c1.103,0 2.043,0.208 2.821,0.616c0.784,0.412 1.333,1.019 1.647,1.826l-1.669,1.019l-0.19,-0.012c-0.241,-0.515 -0.577,-0.89 -1.008,-1.131c-0.426,-0.238 -0.96,-0.358 -1.601,-0.358c-0.994,0 -1.756,0.319 -2.285,0.952c-0.532,0.627 -0.795,1.635 -0.795,3.023c0,1.397 0.246,2.414 0.739,3.046c0.493,0.636 1.221,0.952 2.184,0.952c0.834,0 1.45,-0.185 1.847,-0.56c0.395,-0.381 0.594,-0.94 0.594,-1.68l-0,-0.503l-2.732,-0l-0,-1.848l4.994,-0l-0,6.372l-2.173,-0l0,-1.546l-0.167,-0.022c-0.241,0.554 -0.602,0.982 -1.087,1.288c-0.478,0.296 -1.094,0.448 -1.847,0.448Z" style="fill:#677b4c;fill-rule:nonzero;"/></g></g><g><g><path d="M204.447,263.225l-0,1.926l-3.337,0l-0,9.631l-2.274,-0l0,-9.631l-3.337,0l0,-1.926l8.948,0Z" style="fill:#677b4c;fill-rule:nonzero;"/></g></g><g><g><path d="M208.544,269.709l-0,3.158l5.509,-0l0,1.915l-7.794,-0l0,-11.557l7.671,0l0,1.915l-5.386,0l-0,2.71l4.703,-0l-0,1.859l-4.703,-0Z" style="fill:#677b4c;fill-rule:nonzero;"/></g></g><g><g><path d="M216.188,274.782l-0,-11.557l2.284,0l0,4.726l0.258,-0l3.852,-4.726l2.34,0l0,0.202l-4.255,5.252l4.692,5.901l0,0.202l-2.575,-0l-4.054,-4.984l-0.258,0l0,4.984l-2.284,-0Z" style="fill:#677b4c;fill-rule:nonzero;"/></g></g><g><g><path d="M229.076,274.782l-2.217,-0l-0,-11.557l2.62,0l4.636,7.447l0.202,-0.034l-0,-7.413l2.195,0l-0,11.557l-2.341,-0l-4.905,-7.951l-0.19,0.034l0,7.917Z" style="fill:#677b4c;fill-rule:nonzero;"/></g></g><g><g><path d="M244.313,274.95c-1.053,-0 -1.988,-0.216 -2.799,-0.65c-0.807,-0.431 -1.442,-1.092 -1.904,-1.982c-0.456,-0.887 -0.683,-1.993 -0.683,-3.315c-0,-1.321 0.227,-2.424 0.683,-3.314c0.462,-0.888 1.097,-1.546 1.904,-1.971c0.811,-0.431 1.746,-0.65 2.799,-0.65c1.058,0 1.993,0.219 2.8,0.65c0.806,0.425 1.436,1.083 1.892,1.971c0.454,0.89 0.683,1.993 0.683,3.314c0,1.322 -0.229,2.43 -0.683,3.326c-0.456,0.89 -1.086,1.551 -1.892,1.982c-0.807,0.426 -1.742,0.639 -2.8,0.639Zm0,-1.982c0.986,-0 1.736,-0.314 2.251,-0.941c0.515,-0.633 0.773,-1.641 0.773,-3.024c-0,-1.38 -0.258,-2.385 -0.773,-3.012c-0.515,-0.633 -1.265,-0.952 -2.251,-0.952c-0.985,0 -1.741,0.319 -2.262,0.952c-0.515,0.627 -0.773,1.632 -0.773,3.012c0,1.383 0.258,2.391 0.773,3.024c0.521,0.627 1.277,0.941 2.262,0.941Z" style="fill:#677b4c;fill-rule:nonzero;"/></g></g><g><g><path d="M254.387,263.225l0,9.642l5.196,-0l0,1.915l-7.48,-0l-0,-11.557l2.284,0Z" style="fill:#677b4c;fill-rule:nonzero;"/></g></g><g><g><path d="M265.939,274.95c-1.052,-0 -1.987,-0.216 -2.799,-0.65c-0.806,-0.431 -1.442,-1.092 -1.904,-1.982c-0.456,-0.887 -0.683,-1.993 -0.683,-3.315c0,-1.321 0.227,-2.424 0.683,-3.314c0.462,-0.888 1.098,-1.546 1.904,-1.971c0.812,-0.431 1.747,-0.65 2.799,-0.65c1.059,0 1.994,0.219 2.8,0.65c0.806,0.425 1.436,1.083 1.892,1.971c0.454,0.89 0.683,1.993 0.683,3.314c0,1.322 -0.229,2.43 -0.683,3.326c-0.456,0.89 -1.086,1.551 -1.892,1.982c-0.806,0.426 -1.741,0.639 -2.8,0.639Zm0,-1.982c0.986,-0 1.736,-0.314 2.251,-0.941c0.515,-0.633 0.773,-1.641 0.773,-3.024c-0,-1.38 -0.258,-2.385 -0.773,-3.012c-0.515,-0.633 -1.265,-0.952 -2.251,-0.952c-0.985,0 -1.741,0.319 -2.262,0.952c-0.515,0.627 -0.772,1.632 -0.772,3.012c-0,1.383 0.257,2.391 0.772,3.024c0.521,0.627 1.277,0.941 2.262,0.941Z" style="fill:#677b4c;fill-rule:nonzero;"/></g></g><g><g><path d="M277.839,274.95c-0.963,-0 -1.8,-0.219 -2.509,-0.661c-0.702,-0.44 -1.243,-1.103 -1.623,-1.993c-0.381,-0.888 -0.571,-1.985 -0.571,-3.293c-0,-1.313 0.226,-2.413 0.683,-3.303c0.462,-0.887 1.1,-1.548 1.915,-1.982c0.811,-0.431 1.758,-0.65 2.833,-0.65c1.103,0 2.043,0.208 2.822,0.616c0.783,0.412 1.332,1.019 1.646,1.826l-1.669,1.019l-0.19,-0.012c-0.241,-0.515 -0.577,-0.89 -1.008,-1.131c-0.426,-0.238 -0.96,-0.358 -1.601,-0.358c-0.994,0 -1.756,0.319 -2.285,0.952c-0.532,0.627 -0.795,1.635 -0.795,3.023c0,1.397 0.247,2.414 0.739,3.046c0.493,0.636 1.221,0.952 2.184,0.952c0.834,0 1.45,-0.185 1.848,-0.56c0.394,-0.381 0.593,-0.94 0.593,-1.68l0,-0.503l-2.732,-0l-0,-1.848l4.994,-0l0,6.372l-2.172,-0l-0,-1.546l-0.168,-0.022c-0.241,0.554 -0.602,0.982 -1.087,1.288c-0.478,0.296 -1.094,0.448 -1.847,0.448Z" style="fill:#677b4c;fill-rule:nonzero;"/></g></g><g><g><rect x="285.774" y="263.225" width="2.284" height="11.556" style="fill:#677b4c;fill-rule:nonzero;"/></g></g><g><g><path d="M49.521,249.348c-3.605,0 -6.786,-0.857 -9.54,-2.575c-2.755,-1.725 -4.914,-4.323 -6.473,-7.794c-1.554,-3.472 -2.329,-7.772 -2.329,-12.9c-0,-5.129 0.812,-9.432 2.441,-12.912c1.627,-3.485 3.869,-6.092 6.73,-7.816c2.858,-1.725 6.173,-2.587 9.944,-2.587c2.984,0 5.669,0.566 8.051,1.691c2.388,1.128 4.438,2.979 6.148,5.554l0.862,-0.168l0,-24.243l6.63,-0l-0,62.899l-6.63,0l0,-6.551l-0.862,-0.157c-1.464,2.218 -3.449,4.032 -5.957,5.443c-2.509,1.411 -5.515,2.116 -9.015,2.116Zm2.083,-5.935c4.172,0 7.506,-1.428 10,-4.289c2.5,-2.866 3.751,-7.214 3.751,-13.045c0,-5.86 -1.251,-10.219 -3.751,-13.08c-2.494,-2.858 -5.828,-4.289 -10,-4.289c-4.317,0 -7.642,1.397 -9.977,4.188c-2.329,2.794 -3.494,7.187 -3.494,13.181c-0,11.556 4.49,17.334 13.471,17.334Z" style="fill:#1c1018;fill-rule:nonzero;"/></g></g><g><g><path d="M105.59,249.348c-4.233,0 -7.917,-0.89 -11.052,-2.676c-3.13,-1.792 -5.541,-4.429 -7.234,-7.917c-1.697,-3.486 -2.542,-7.71 -2.542,-12.676c-0,-4.964 0.845,-9.194 2.542,-12.688c1.693,-3.499 4.104,-6.148 7.234,-7.939c3.135,-1.792 6.819,-2.688 11.052,-2.688c4.233,0 7.911,0.896 11.041,2.688c3.136,1.791 5.549,4.44 7.245,7.939c1.694,3.494 2.542,7.724 2.542,12.688c0,4.966 -0.848,9.19 -2.542,12.676c-1.696,3.488 -4.109,6.125 -7.245,7.917c-3.13,1.786 -6.808,2.676 -11.041,2.676Zm0,-5.935c4.471,0 7.895,-1.411 10.269,-4.233c2.374,-2.822 3.561,-7.189 3.561,-13.101c-0,-5.941 -1.187,-10.319 -3.561,-13.136c-2.374,-2.822 -5.798,-4.233 -10.269,-4.233c-4.479,0 -7.914,1.42 -10.302,4.256c-2.383,2.83 -3.572,7.2 -3.572,13.113c-0,5.912 1.189,10.279 3.572,13.101c2.388,2.822 5.823,4.233 10.302,4.233Z" style="fill:#677b4c;fill-rule:nonzero;"/></g></g><g><g><path d="M161.69,241.375l2.116,4.759c-1.053,1.061 -2.441,1.859 -4.166,2.397c-1.724,0.543 -3.592,0.817 -5.599,0.817c-8.572,0 -12.855,-4.336 -12.855,-13.012l-0,-27.301l-7.805,0l-0,-5.453l7.805,-0l-0,-9.485l6.629,-1.097l0,10.582l14.446,-0l-0,5.453l-14.446,0l0,26.652c0,5.151 2.24,7.726 6.719,7.726c2.441,0 4.541,-0.677 6.304,-2.038l0.852,0Z" style="fill:#1c1018;fill-rule:nonzero;"/></g></g><g><clipPath id="_clip1"><path d="M105.92,208.029c-9.364,0 -16.954,8.822 -16.954,19.703c0,10.885 7.59,19.706 16.954,19.706c9.364,0 16.954,-8.821 16.954,-19.706c-0,-10.881 -7.59,-19.703 -16.954,-19.703Z"/></clipPath><g clip-path="url(#_clip1)"><rect x="88.966" y="208.029" width="33.908" height="39.473" style="fill:#677b4c;fill-rule:nonzero;"/></g></g></g></svg>